# xmcd
#
# Track frame offsets:
#	150
#	16192
#	29785
#	45600
#	61315
#	77779
#	97448
#	114247
#	130307
#	145840
#	161130
#	177025
#
# Disc length: 2542 seconds
#
# Revision: 0
# Processed by: cddbd v1.5.2PL0 Copyright (c) Steve Scherf et al.
# Submitted via: audiograbber 1.83.01
#
DISCID=a409ec0c
DTITLE=Brett Eldredge - Brett Eldredge
DYEAR=2017
DGENRE=Country
TTITLE0=Love Someone
TTITLE1=Superhero
TTITLE2=The Long Way
TTITLE3=The Reason
TTITLE4=Somethin' I'm Good At
TTITLE5=Haven't Met You
TTITLE6=No Stopping You
TTITLE7=Brother
TTITLE8=Heartbreaker
TTITLE9=Crystal Clear
TTITLE10=Cycles
TTITLE11=Castaway
EXTD=
EXTT0=
EXTT1=
EXTT2=
EXTT3=
EXTT4=
EXTT5=
EXTT6=
EXTT7=
EXTT8=
EXTT9=
EXTT10=
EXTT11=
PLAYORDER=
